<?xml version="1.0" encoding="UTF-8"?>
<svg width="18px" height="18px" viewBox="0 0 18 18" version="1.1" xmlns="http://www.w3.org/2000/svg" xmlns:xlink="http://www.w3.org/1999/xlink">
    <title>Group 3</title>
    <defs>
        <polygon id="path-1" points="0 0 18 0 18 17.9995 0 17.9995"></polygon>
    </defs>
    <g id="Icons" stroke="none" stroke-width="1" fill="none" fill-rule="evenodd">
        <g id="Artboard" transform="translate(-319.000000, -99.000000)">
            <g id="Group-3" transform="translate(319.000000, 99.000000)">
                <mask id="mask-2" fill="white">
                    <use xlink:href="#path-1"></use>
                </mask>
                <g id="Clip-2"></g>
                <path d="M9.707,12.4745 L9,13.1815 L8.293,12.4745 L3.343,7.5255 L4.05,6.8185 L9,11.7675 L13.95,6.8185 L14.657,7.5255 L9.707,12.4745 Z M9,-0.0005 C4.029,-0.0005 0,4.0295 0,8.9995 C0,13.9705 4.029,17.9995 9,17.9995 C13.971,17.9995 18,13.9705 18,8.9995 C18,4.0295 13.971,-0.0005 9,-0.0005 L9,-0.0005 Z" id="Fill-1" fill="#000000" mask="url(#mask-2)"></path>
            </g>
        </g>
    </g>
</svg>