<svg xmlns="http://www.w3.org/2000/svg" width="16" height="16" viewBox="0 0 16 16"><path d="M14.15,6.77H12.76a4.92,4.92,0,1,1-9.52,0H1.84v6.77a.63.63,0,0,0,.63.62H13.54a.62.62,0,0,0,.62-.62V6.77Zm0-4.3A.59.59,0,0,0,14,2a.6.6,0,0,0-.44-.19H11.69a.62.62,0,0,0-.62.62V4.31a.62.62,0,0,0,.62.62h1.85a.62.62,0,0,0,.62-.62V2.46ZM8,4.91A3.08,3.08,0,1,0,11.08,8,3.08,3.08,0,0,0,8,4.91ZM14.15,16H1.85A1.85,1.85,0,0,1,0,14.15V1.85A1.85,1.85,0,0,1,1.85,0h12.3A1.85,1.85,0,0,1,16,1.85v12.3A1.85,1.85,0,0,1,14.15,16Z"/></svg>