<svg xmlns="http://www.w3.org/2000/svg" width="256.94" height="32" viewBox="0 0 256.94 32"><path d="M256,14.43c-1.38-.77-2.67,1-1.09,2.07C256.84,17.85,257.64,15.35,256,14.43Z" transform="translate(0.06 0.37)"/><path d="M251.59,13.54c-.75-.06-6.78-.11-9.77,0s-3.39-1.15-4.08-1.95a2.66,2.66,0,0,0-2.64-.92,8.8,8.8,0,0,0-3.39,1.49c-1.21.92-1.27.46-1.61.12a14,14,0,0,0-1.78-2.07c-1.15-1-2,0-2.7.69s-1,.29-1.67-.46a1.58,1.58,0,0,0-2-.35,34.94,34.94,0,0,0-3.39,2.42c-1.14,1-1.09-.35-1.43-1.15s-1.3-1.09-2.07.06a54.14,54.14,0,0,1-4.77,5.22c-.75.64-.86.06-.8-.51a16.14,16.14,0,0,1,1.6-4.6c.95-1.92-1.75-1.89-3-.17a21,21,0,0,1-4.54,4.48c-1.78,1.26-1.15-1.61-.12-4.14s-1.95-3.07-3.44-1c-.52.72-6.21,4.16-8.16,5.65s-1.64-.52-1.87-3.5c-.11-1.5-2.61-2.07-3.3-.66-.47,1-4.22,3.56-5.63,4-1.18.38-.92-.32-.72-1.23a9.58,9.58,0,0,1,1.53-3.54c1.06-1.6-.44-2.5-2.84-1.57s-16,4.63-16.58,4.78-.92.54-1-1.18-.57-4.56-.46-5.21S160.4,4.77,159,6s-7.47,5.36-8.5,5.63-1.15-.15-1.57-.34S146,10,145.43,12.79c-.82-.65-1.66-1.07-2.72-.2-3.27,2.7-11.32,2.24-12.41,2.12s-1.72.35-1.49-2.47-.69-5.51-1.15-6-1.41-.89-1.9.63c-.69,2.18-6.33,7.86-7.12,8.44-1.55,1.15-3.75.23-2.36-1.26,3.74-4,.41-5.32-.69-3.62-3.33,5.17-8.9,6.21-9.7,6.44s-1.38.74-1.32-1.21-1.5-4.94-2.59-5.4-1.78-.34-2.24.63a28,28,0,0,0-1.38,5.35c.06.4-.52.91-.46-.06s.52-2.36,0-3.79-2.29-.87-3,0S85.44,16,84.58,16.21s-1.21-.29-1.73-1.73-1.66-4-2.7-4.65-1.72-.75-2.64.63-10.23,6-11.37,6.44-2,.23-2.48-1.55a33,33,0,0,0-1.26-4.71c-.34-.52-2.18-1.38-2.18.46S54,16.9,53.73,17c-.46-3.5-1.15-6.66-2-7.64s-1.33-.4-2,.35a26.65,26.65,0,0,1-3.1,3.16c1-4.2,3.79-9.71,1.55-12.3S46.9,1.65,46.32,2.94C44.6,6.79,33.9,14.18,27.65,13.17c-2.47-.41-1,1.43-.86,1.89-.81-.17-1.49.06-1.49.52s-3.57,4.48-4.48,5.06-1.23.17-1.15-1.44c0-1.27,1-6.49,2.12-8.39s-.72-3-2.07-1.66c-1,1-9.7,9.13-18.84,10-2,.2-.4,2.64,1.21,2.35,6.6-1.18,14.93-7,15.62-7.46s.69-.18.58.45-2.07,7.53,1.32,8.74,5.8-4,6.09-4.2c.92.92,2,2.07,3.45,2.24s1.6-1.78.34-5.45C38.57,15.58,44,9,45.11,7.77s.69.57.64.91-3.11,7.41-3.85,8.68C41.46,18.1,42,21,44,18.68s5.4-5.28,5.75-5.74,1.2-1.67,1.49.17a58.29,58.29,0,0,0,1.09,6c.23.35.81,1.09,2,.29s6.21-3.74,6.9-4.89c.51,1.84,2.18,4.37,2.87,4.66A3.36,3.36,0,0,0,67.4,19c1.61-.87,10.69-5.41,11.32-6.15s1-.64,1.32.11,4,4.67-2.74,4.22c-2.43-.17.93,3.18,6.36,1.7,2.61-.71,11.72-3.62,12.35-4C96.18,17,95.15,29.09,95,30c-.17,1.32,1.9,2.87,2.25.05s3.29-14.54,3.38-15.39c.23-2,.89-2.22,1.33-1.49,1.43,2.41.05,4,0,5.45s1,1.38,1.6,1.21,8.22-2.13,9.25-2.93,1.15-.57,1.5.06,1.89,2.24,4.76.57,6.21-5.28,7.13-7.58c.73-1.84.8.23.8.8s-1.32,5.81,2.18,6.09c11.06.91,13-.62,13.85-1.38a2.28,2.28,0,0,1,2.21-.24c0,1.16.16,2.24.23,2.8.16,1.15,1.65,1.22,2.69.38s2.14-2.18,2.22-3.22,1.11-1.37,1.49-1.57,5.59-2.83,6.32-3.71.84-.31.92.54.27,3.75.31,4.21.19.8-.73,1.15-4.44,1.45-4.9,1.64-1.31.58-.65,1.65,1,2.37,2.6,2.8a23.94,23.94,0,0,1,4.44,1.53c.5.34,1.92.23,1.69-1.57s-.31-2.8-.35-3.18-.38-1,1-1.3c1.11-.26,11.22-3.43,15.64-4.4a13.14,13.14,0,0,0-.27,5.11c.35,1.26,1.84,1.26,3.22,1s5.4-3.45,6.49-4.31a18.88,18.88,0,0,0,.35,3,1.86,1.86,0,0,1-.58,2c-.46.51-5.68,4.54-6.2,5.11s-.4,1.49-.06,2.53A10.36,10.36,0,0,0,184.66,31c1.15.64,2.48.28,3.41-1.2,1-1.65,1.88-6,2.05-9.19.92-.92,6.89-5,8.62-6.27s1.2.81,1.32,1.79.28,2.52,1.49,2.64a6.72,6.72,0,0,0,4.08-1.5c1.09-.86,1.21-.86,1.78,1s2.64,1.44,3.62,1.09,1.95-2.18,3.16-3.79.92-.11,1,1.09a1.16,1.16,0,0,0,2.06.64,22.36,22.36,0,0,1,5.35-5c.34.8,0,2.3,0,3.68s2.3,1.49,2.13,0c-.15-1.26,1.61-2.76,2.93-3.74a7.79,7.79,0,0,1,1.49,2.53,1.32,1.32,0,0,0,2.07.57,18.56,18.56,0,0,1,3.22-2.12c1.72-.86,2.58,1,3.21,1.66s3.62,1.21,4.89,1.15,6.49-.23,7.41.23,1.55.06,2.53-.75S252.33,13.6,251.59,13.54Zm-223.76,5a1.65,1.65,0,0,1-.75-1.78c.14-.87.5-.36.56-.21s.46,1.34.53,1.53S28.54,19,27.83,18.53ZM148.07,15c-.15.19-.46.77-.59,1-.35-.73-.47-1.48.26-1.54S148.32,14.72,148.07,15Zm7.87,4.69c-.12-.11-.21-.31.13-.4s2.84-1,3.43-1.11c.06.63.19,2.51.19,2.68A31.7,31.7,0,0,1,155.94,19.72ZM186.38,29c-.8,1.27-2.79-.63-3.15-1.31a1.93,1.93,0,0,1,.24-1.77,27,27,0,0,1,4.45-3.73C188.49,24.94,187,27.94,186.38,29Z" transform="translate(0.06 0.37)"/><path d="M57.52,5.35a1.08,1.08,0,0,0,2,.58c.63-.92-.29-1.67-.63-1.84S57.29,3.46,57.52,5.35Z" transform="translate(0.06 0.37)"/></svg>