<?xml version="1.0" encoding="UTF-8"?>
<svg width="17px" height="17px" viewBox="0 0 17 17" version="1.1" xmlns="http://www.w3.org/2000/svg" xmlns:xlink="http://www.w3.org/1999/xlink">
    <title>pinterest</title>
    <g id="Icons" stroke="none" stroke-width="1" fill="none" fill-rule="evenodd">
        <g id="Artboard" transform="translate(-295.000000, -99.000000)" fill="#000000" fill-rule="nonzero">
            <path d="M295,107.499387 C295,111.101695 297.24165,114.174324 300.403015,115.411468 C300.330664,114.740786 300.260766,113.70595 300.433672,112.973963 C300.586958,112.310638 301.430643,108.751244 301.430643,108.751244 C301.430643,108.751244 301.178028,108.241183 301.178028,107.490804 C301.178028,106.310061 301.863522,105.426037 302.714564,105.426037 C303.439299,105.426037 303.791243,105.970429 303.791243,106.621493 C303.791243,107.349802 303.327707,108.441039 303.086129,109.4489 C302.882565,110.296141 303.507971,110.985215 304.343071,110.985215 C305.852629,110.985215 307.013922,109.391273 307.013922,107.092319 C307.013922,105.058204 305.549737,103.635918 303.465051,103.635918 C301.046815,103.635918 299.629229,105.448107 299.629229,107.325279 C299.629229,108.057266 299.908822,108.838298 300.261992,109.263758 C300.330664,109.348359 300.342927,109.4207 300.319628,109.508979 C300.254635,109.777497 300.112385,110.356221 300.081728,110.473927 C300.043713,110.630869 299.9591,110.661522 299.798456,110.589181 C298.736493,110.09506 298.074298,108.542806 298.074298,107.298305 C298.074298,104.615579 300.020414,102.156004 303.688235,102.156004 C306.635,102.156004 308.926928,104.255103 308.926928,107.064118 C308.926928,109.992066 307.080141,112.352326 304.515978,112.352326 C303.653899,112.352326 302.845777,111.90357 302.568636,111.375117 C302.568636,111.375117 302.143115,112.996033 302.040107,113.394519 C301.848806,114.133862 301.331314,115.057122 300.983048,115.621132 C301.780134,115.866354 302.622593,116 303.500613,116 C308.194835,116 312,112.195384 312,107.501839 C312,102.804616 308.194835,99 303.500613,99 C298.805165,99.0012261 295,102.805842 295,107.499387 Z" id="pinterest"></path>
        </g>
    </g>
</svg>