<svg xmlns="http://www.w3.org/2000/svg" width="17" height="17" viewBox="0 0 17 17"><path d="M0,8.5a8.5,8.5,0,0,0,5.4,7.91,8.34,8.34,0,0,1,0-2.44c.16-.66,1-4.22,1-4.22a3.11,3.11,0,0,1-.25-1.26c0-1.18.68-2.06,1.53-2.06A1.06,1.06,0,0,1,8.79,7.62a17,17,0,0,1-.7,2.83A1.23,1.23,0,0,0,9.34,12c1.51,0,2.67-1.6,2.67-3.9A3.35,3.35,0,0,0,8.47,4.64,3.68,3.68,0,0,0,4.63,8.33a3.27,3.27,0,0,0,.63,1.93.27.27,0,0,1,.06.25c-.07.27-.21.85-.24,1s-.12.19-.28.12A3.82,3.82,0,0,1,3.07,8.3C3.07,5.62,5,3.16,8.69,3.16a5,5,0,0,1,5.24,4.9c0,2.93-1.85,5.29-4.41,5.29a2.29,2.29,0,0,1-1.95-1S7.14,14,7,14.39A9.2,9.2,0,0,1,6,16.62,8.4,8.4,0,0,0,8.5,17,8.5,8.5,0,1,0,0,8.5Z"/></svg>