<svg xmlns="http://www.w3.org/2000/svg" width="870.9" height="875" viewBox="0 0 870.9 875"><path d="M667.7,169.9a103.12,103.12,0,0,0-30.1-72.7L570.5,30.1A102.93,102.93,0,0,0,497.7,0h-241a53.67,53.67,0,0,0-53.6,53.6V225.8H667.7V169.9ZM53.6,734.7h92.1V548.4H725.3V734.6h92A53.67,53.67,0,0,0,870.9,681V341.8a53.67,53.67,0,0,0-53.6-53.6H53.6A53.67,53.67,0,0,0,0,341.8V681a53.56,53.56,0,0,0,53.6,53.7Zm84.8-373.2a56.3,56.3,0,1,1-56.3,56.3A56.29,56.29,0,0,1,138.4,361.5ZM671.6,848.3V602H199.1V848.2A26.93,26.93,0,0,0,225.9,875H644.7A26.8,26.8,0,0,0,671.6,848.3ZM319.2,711.7H551.5A26.66,26.66,0,0,1,578,734.5a24.66,24.66,0,0,1,.3,3.9,26.74,26.74,0,0,1-26.8,26.8H319.2a26.74,26.74,0,0,1-26.8-26.8,25.61,25.61,0,0,1,.3-3.9,26.75,26.75,0,0,1,26.5-22.8Z"/></svg>