<svg xmlns="http://www.w3.org/2000/svg" width="21" height="16" viewBox="0 0 21 16"><path d="M21,1.89a8.81,8.81,0,0,1-2.47.64A4.11,4.11,0,0,0,20.42.29a9,9,0,0,1-2.73,1A4.48,4.48,0,0,0,14.54,0a4.18,4.18,0,0,0-4.31,4,3.57,3.57,0,0,0,.12.92A12.53,12.53,0,0,1,1.47.74a3.82,3.82,0,0,0-.58,2A4,4,0,0,0,2.8,6.13,4.55,4.55,0,0,1,.85,5.62v0a4.1,4.1,0,0,0,3.46,4,4.35,4.35,0,0,1-1.14.15,4.28,4.28,0,0,1-.81-.08,4.28,4.28,0,0,0,4,2.81A9,9,0,0,1,1,14.24a8.77,8.77,0,0,1-1-.06A12.77,12.77,0,0,0,6.61,16,11.79,11.79,0,0,0,18.86,4.5c0-.17,0-.35,0-.52A8.38,8.38,0,0,0,21,1.89Z" /></svg>