<?xml version="1.0" encoding="UTF-8"?>
<svg width="21px" height="16px" viewBox="0 0 21 16" version="1.1" xmlns="http://www.w3.org/2000/svg" xmlns:xlink="http://www.w3.org/1999/xlink">
    <title>Path</title>
    <g id="Icons" stroke="none" stroke-width="1" fill="none" fill-rule="evenodd">
        <g id="Artboard" transform="translate(-268.000000, -99.000000)" fill="#111111" fill-rule="nonzero">
            <path d="M289,100.892235 C288.229051,101.215299 287.396426,101.430676 286.527057,101.526672 C287.416766,101.026384 288.097825,100.234414 288.421296,99.2922965 C287.588671,99.7538172 286.666156,100.092266 285.685903,100.273182 C284.89855,99.4885966 283.779198,99 282.54043,99 C280.16197,99 278.234269,100.80793 278.234269,103.038614 C278.234269,103.353679 278.271012,103.661359 278.345154,103.957963 C274.765325,103.788739 271.590983,102.180801 269.4671,99.7353563 C269.0977,100.331641 268.885115,101.027614 268.885115,101.766047 C268.885115,103.165994 269.643598,104.4041 270.80035,105.127764 C270.095013,105.108688 269.431013,104.92408 268.848372,104.623784 C268.848372,104.639168 268.848372,104.658244 268.848372,104.673628 C268.848372,106.631091 270.333188,108.266105 272.305505,108.634706 C271.944635,108.72701 271.563426,108.776855 271.169749,108.776855 C270.890895,108.776855 270.624508,108.749779 270.35812,108.703627 C270.907955,110.307257 272.499063,111.476443 274.380835,111.511519 C272.904549,112.595785 271.05099,113.242529 269.029463,113.242529 C268.68106,113.242529 268.34053,113.223453 268,113.184685 C269.911298,114.334795 272.17428,115 274.606543,115 C282.529276,115 286.863651,108.842698 286.863651,103.504442 C286.863651,103.327834 286.859714,103.154302 286.851184,102.981385 C287.691683,102.415869 288.421952,101.704511 289,100.89285 L289,100.892235 Z" id="Path"></path>
        </g>
    </g>
</svg>