<?xml version="1.0" encoding="utf-8"?>
<!-- Generator: Adobe Illustrator 16.0.0, SVG Export Plug-In . SVG Version: 6.00 Build 0)  -->
<!DOCTYPE svg PUBLIC "-//W3C//DTD SVG 1.1//EN" "http://www.w3.org/Graphics/SVG/1.1/DTD/svg11.dtd">
<svg version="1.1" id="Layer_1" xmlns="http://www.w3.org/2000/svg" xmlns:xlink="http://www.w3.org/1999/xlink" x="0px" y="0px"
	 width="16px" height="16px" viewBox="0 0 16 16" enable-background="new 0 0 16 16" xml:space="preserve">
<path d="M6.578,3.355C5,4.933,4.929,7.431,6.326,9.113L2.101,13.34l0.559,0.559l4.226-4.226c1.683,1.397,4.18,1.327,5.758-0.251
	c1.673-1.673,1.674-4.394,0-6.066C10.972,1.683,8.25,1.683,6.578,3.355z M12.086,8.863c-1.366,1.367-3.582,1.367-4.95,0
	c-1.367-1.366-1.366-3.583,0-4.949c1.368-1.367,3.583-1.367,4.949,0C13.452,5.281,13.453,7.496,12.086,8.863z"/>
</svg>
