<?xml version="1.0" encoding="utf-8"?>
<!-- Generator: Adobe Illustrator 16.0.0, SVG Export Plug-In . SVG Version: 6.00 Build 0)  -->
<!DOCTYPE svg PUBLIC "-//W3C//DTD SVG 1.1//EN" "http://www.w3.org/Graphics/SVG/1.1/DTD/svg11.dtd">
<svg version="1.1" id="Layer_1" xmlns="http://www.w3.org/2000/svg" xmlns:xlink="http://www.w3.org/1999/xlink" x="0px" y="0px"
	 width="257px" height="32px" viewBox="0 0 257 32" enable-background="new 0 0 257 32" xml:space="preserve">
<g>
	<path d="M256.009,14.433c-1.38-0.775-2.672,0.96-1.094,2.067C256.84,17.851,257.641,15.352,256.009,14.433z"/>
	<path d="M251.585,13.543c-0.747-0.059-6.78-0.115-9.766,0c-2.987,0.114-3.39-1.15-4.08-1.955c-0.689-0.803-1.723-1.149-2.642-0.918
		c-0.918,0.231-2.183,0.574-3.388,1.495c-1.207,0.917-1.265,0.457-1.611,0.114c-0.344-0.346-0.631-1.035-1.779-2.069
		c-1.149-1.035-2.013,0-2.701,0.691c-0.688,0.687-1.032,0.286-1.665-0.463c-0.631-0.745-1.549-0.631-2.012-0.343
		c-0.458,0.287-2.237,1.436-3.387,2.413c-1.149,0.976-1.094-0.344-1.438-1.15c-0.346-0.804-1.292-1.09-2.068,0.059
		c-0.683,1.011-4.021,4.596-4.768,5.227c-0.746,0.632-0.862,0.058-0.805-0.516c0.059-0.576,0.496-2.336,1.609-4.597
		c0.947-1.925-1.753-1.896-2.988-0.173c-0.841,1.246-2.756,3.218-4.537,4.482c-1.78,1.264-1.149-1.609-0.115-4.138
		s-1.953-3.072-3.446-0.976c-0.519,0.728-6.204,4.165-8.158,5.658c-1.953,1.494-1.636-0.519-1.866-3.504
		c-0.115-1.504-2.613-2.069-3.304-0.661c-0.47,0.961-4.222,3.562-5.629,4.021c-1.178,0.384-0.919-0.317-0.718-1.234
		c0.122-0.566,0.395-1.843,1.522-3.533c1.068-1.604-0.437-2.504-2.834-1.575c-2.521,0.976-16.008,4.634-16.581,4.786
		c-0.575,0.154-0.92,0.537-0.997-1.187c-0.076-1.724-0.573-4.558-0.46-5.207c0.116-0.652-0.575-3.524-1.953-2.338
		c-1.378,1.188-7.467,5.362-8.501,5.629c-1.034,0.271-1.149-0.151-1.57-0.343c-0.399-0.185-2.904-1.289-3.516,1.554
		c-0.822-0.653-1.666-1.074-2.724-0.203c-3.272,2.7-11.315,2.24-12.407,2.125c-1.091-0.113-1.722,0.346-1.494-2.471
		c0.229-2.812-0.688-5.514-1.149-5.973c-0.458-0.459-1.413-0.894-1.895,0.632c-0.691,2.182-6.333,7.858-7.122,8.443
		c-1.551,1.15-3.755,0.222-2.358-1.263c3.736-3.964,0.41-5.32-0.689-3.619c-3.33,5.17-8.904,6.203-9.706,6.434
		c-0.806,0.229-1.379,0.747-1.322-1.205c0.057-1.954-1.495-4.941-2.585-5.401c-1.092-0.459-1.782-0.344-2.241,0.632
		c-0.459,0.979-1.437,4.941-1.378,5.344c0.057,0.4-0.519,0.918-0.461-0.059c0.059-0.976,0.519-2.355,0-3.791
		c-0.517-1.437-2.296-0.862-3.043,0c-0.748,0.862-9.421,3.617-10.283,3.791c-0.861,0.173-1.206-0.286-1.724-1.724
		c-0.517-1.437-1.665-3.963-2.7-4.652c-1.034-0.689-1.724-0.748-2.642,0.632c-0.918,1.379-10.225,5.975-11.373,6.434
		c-1.149,0.46-2.012,0.229-2.472-1.552c-0.459-1.78-0.918-4.193-1.263-4.71c-0.346-0.517-2.183-1.379-2.183,0.46
		c0,1.838-6.263,5.802-6.492,5.859c-0.459-3.504-1.148-6.664-2.009-7.64c-0.863-0.977-1.323-0.403-1.954,0.345
		c-0.632,0.746-2.471,2.757-3.102,3.158c0.976-4.193,3.792-9.707,1.551-12.293C45.976-2.057,46.9,1.646,46.32,2.94
		c-1.722,3.849-12.42,11.243-18.669,10.226c-2.471-0.402-1.034,1.437-0.862,1.896c-0.804-0.173-1.494,0.057-1.494,0.516
		s-3.562,4.482-4.48,5.057c-0.92,0.574-1.222,0.174-1.148-1.437c0.057-1.264,1.033-6.49,2.125-8.386
		c1.013-1.76-0.727-3.009-2.068-1.667c-0.983,0.983-9.708,9.133-18.842,10.053c-2.008,0.202-0.403,2.642,1.206,2.355
		c6.607-1.18,14.936-6.95,15.625-7.468c0.689-0.518,0.689-0.173,0.575,0.459c-0.115,0.633-2.068,7.524,1.321,8.732
		c3.389,1.206,5.803-4.021,6.089-4.195c0.919,0.92,2.01,2.069,3.447,2.241c1.435,0.173,1.608-1.78,0.344-5.456
		c9.077-0.289,14.477-6.837,15.625-8.101c1.149-1.264,0.69,0.575,0.632,0.919c-0.057,0.345-3.102,7.41-3.849,8.675
		c-0.44,0.743,0.057,3.618,2.125,1.321c2.069-2.298,5.4-5.285,5.745-5.745c0.344-0.46,1.206-1.665,1.493,0.173
		c0.289,1.837,0.863,5.687,1.093,6.031c0.229,0.346,0.804,1.092,2.009,0.287c1.208-0.805,6.205-3.732,6.896-4.883
		c0.515,1.839,2.182,4.366,2.871,4.653c0.691,0.288,1.665,0.688,3.274-0.171c1.609-0.863,10.686-5.401,11.316-6.148
		c0.633-0.746,0.978-0.633,1.322,0.116c0.345,0.746,4.001,4.671-2.738,4.212c-2.437-0.167,0.927,3.183,6.357,1.704
		c2.605-0.708,11.718-3.619,12.351-3.965c0.171,2.069-0.858,14.141-0.977,15.051c-0.171,1.322,1.896,2.874,2.241,0.059
		c0.344-2.814,3.292-14.547,3.389-15.396c0.229-2.009,0.888-2.222,1.321-1.492c1.437,2.411,0.059,3.963,0,5.456
		c-0.057,1.495,0.975,1.379,1.608,1.208c0.631-0.173,8.214-2.127,9.249-2.931c1.034-0.805,1.148-0.574,1.493,0.058
		c0.347,0.632,1.896,2.24,4.769,0.574c2.871-1.665,6.204-5.286,7.123-7.582c0.735-1.84,0.803,0.229,0.803,0.804
		s-1.321,5.803,2.184,6.09c11.052,0.904,13-0.624,13.845-1.38c0.648-0.581,1.487-0.433,2.215-0.24
		c0.026,1.16,0.156,2.234,0.23,2.797c0.153,1.146,1.647,1.224,2.682,0.382c1.034-0.844,2.144-2.184,2.221-3.219
		c0.077-1.033,1.111-1.378,1.493-1.569c0.384-0.191,5.592-2.834,6.32-3.714c0.727-0.882,0.842-0.308,0.919,0.535
		c0.077,0.844,0.268,3.753,0.306,4.213s0.192,0.806-0.727,1.149c-0.92,0.344-4.443,1.455-4.902,1.647
		c-0.461,0.189-1.302,0.575-0.65,1.645c0.65,1.073,0.995,2.375,2.603,2.797c1.607,0.421,3.946,1.188,4.441,1.53
		c0.5,0.348,1.916,0.231,1.687-1.568c-0.229-1.801-0.307-2.796-0.345-3.178c-0.038-0.384-0.383-0.997,0.957-1.303
		c1.112-0.255,11.225-3.43,15.638-4.396c-0.327,1.225-0.607,3.844-0.263,5.107c0.346,1.264,1.839,1.264,3.217,0.978
		c1.379-0.287,5.401-3.447,6.492-4.308c0,0.401,0.114,1.952,0.344,2.986c0.23,1.034-0.114,1.436-0.573,1.955
		c-0.46,0.515-5.688,4.536-6.205,5.112c-0.517,0.573-0.401,1.491-0.058,2.527c0.345,1.033,2.414,3.044,3.562,3.676
		c1.15,0.631,2.48,0.272,3.409-1.206c1.035-1.647,1.877-5.976,2.049-9.193c0.919-0.916,6.894-4.997,8.616-6.261
		c1.725-1.264,1.208,0.805,1.32,1.782c0.117,0.977,0.288,2.527,1.495,2.642c1.206,0.114,2.987-0.633,4.08-1.494
		c1.09-0.861,1.205-0.861,1.778,0.978c0.576,1.838,2.644,1.438,3.62,1.09c0.977-0.344,1.952-2.181,3.16-3.791
		c1.205-1.607,0.918-0.114,0.976,1.092c0.058,1.207,1.599,1.345,2.068,0.632c0.661-1.003,3.734-4.193,5.342-4.996
		c0.345,0.803,0,2.297,0.058,3.677c0.058,1.378,2.298,1.492,2.126,0c-0.146-1.261,1.607-2.759,2.929-3.735
		c0.346,0.401,1.092,1.322,1.495,2.528c0.401,1.207,1.666,0.86,2.066,0.574c0.403-0.287,1.494-1.264,3.218-2.126
		s2.584,0.977,3.216,1.667c0.632,0.688,3.62,1.206,4.883,1.148c1.264-0.057,6.491-0.229,7.411,0.229s1.551,0.058,2.528-0.747
		C253.48,14.692,252.329,13.601,251.585,13.543z M27.832,18.526c-0.993-0.657-0.785-1.607-0.756-1.779
		c0.146-0.871,0.507-0.354,0.564-0.211c0.058,0.144,0.461,1.34,0.527,1.531C28.235,18.259,28.541,18.997,27.832,18.526z
		 M148.069,15.031c-0.151,0.185-0.459,0.766-0.593,0.995c-0.346-0.728-0.461-1.474,0.268-1.532
		C148.472,14.437,148.318,14.724,148.069,15.031z M155.94,19.722c-0.115-0.114-0.21-0.308,0.133-0.402
		c0.344-0.095,2.834-0.957,3.429-1.11c0.056,0.632,0.189,2.508,0.189,2.68C159.041,20.775,156.055,19.837,155.94,19.722z
		 M186.385,28.955c-0.806,1.265-2.796-0.631-3.159-1.32c-0.364-0.689,0.096-1.492,0.248-1.762c0.153-0.268,3.274-3.159,4.442-3.732
		C188.491,24.936,187.028,27.945,186.385,28.955z"/>
	<path d="M57.521,5.353c0.147,1.21,1.38,1.494,2.011,0.574c0.631-0.918-0.288-1.666-0.631-1.838
		C58.556,3.917,57.292,3.457,57.521,5.353z"/>
</g>
</svg>
