<?xml version="1.0" encoding="UTF-8"?>
<svg width="113px" height="227px" viewBox="0 0 113 227" version="1.1" xmlns="http://www.w3.org/2000/svg" xmlns:xlink="http://www.w3.org/1999/xlink">
    <g id="Components" stroke="none" stroke-width="1" fill="none" fill-rule="evenodd">
        <g id="Footer" transform="translate(-55.000000, -185.000000)">
            <g id="Left-Shape" transform="translate(-25.000000, 163.000000)">
                <path d="M127.514109,181.905933 C141.234027,177.831275 156.484656,177.671493 168.121403,171.902988 C189.541886,161.284543 192.03858,153.63034 193.94477,141.080776 C196.339796,125.31292 175.098948,113.022048 181.177197,102.691121 C187.770015,91.4856026 188.714023,55.5411736 146.7103,41.9755378 C104.706578,28.4099019 88.7246452,39.9772357 77.6726087,41.9840611 C70.448702,43.2957759 60.6091985,46.0117602 55.1235117,47.6842222 C46.1886242,50.4082678 41.1930357,53.039451 32.4147735,61.9691669 C25.7134814,68.7860782 36.5053058,87.1160243 40.8586179,95.3444183 C42.6434758,98.7180597 46.1838326,105.65849 47.7661407,108.838984 C50.9710656,115.280993 58.5168161,128.362943 59.4085276,130.137659 C60.7127349,132.733337 60.2593381,133.444984 61.4159605,136.090414 C63.3123397,140.427817 63.2425004,144.962766 65.2879119,148.776145 C70.9130015,159.263325 75.9387744,167.451065 79.6191372,173.339726 C85.8333273,183.282567 85.9879909,186.430131 102.210445,186.478316 C105.61304,186.486938 123.792982,183.011065 127.514109,181.905933 Z" id="Oval" fill="#D5A188" transform="translate(112.204746, 110.977970) scale(-1, 1) rotate(-139.000000) translate(-112.204746, -110.977970) "></path>
                <path d="M82.1117454,23.4429139 C92.6520084,30.6494952 121.896848,54.0266599 127.60402,66.1879148 C160.180085,135.603352 153.738021,221.124745 80.322943,247.442914" id="Path-5" stroke="#FFFFFF" stroke-width="3"></path>
            </g>
        </g>
    </g>
</svg>