<?xml version="1.0" encoding="UTF-8"?>
<svg width="258px" height="33px" viewBox="0 0 258 33" version="1.1" xmlns="http://www.w3.org/2000/svg" xmlns:xlink="http://www.w3.org/1999/xlink">
    <!-- Generator: Sketch 54.1 (76490) - https://sketchapp.com -->
    <title>Untitled</title>
    <desc>Created with Sketch.</desc>
    <g id="Page-1" stroke="none" stroke-width="1" fill="none" fill-rule="evenodd">
        <g id="logo-black-horizontal" fill="#FFFFFF" fill-rule="nonzero">
            <path d="M257.009,15.433 C255.629,14.658 254.337,16.393 255.915,17.5 C257.84,18.851 258.641,16.352 257.009,15.433 Z" id="Path"></path>
            <path d="M252.585,14.543 C251.838,14.484 245.805,14.428 242.819,14.543 C239.832,14.657 239.429,13.393 238.739,12.588 C238.05,11.785 237.016,11.439 236.097,11.67 C235.179,11.901 233.914,12.244 232.709,13.165 C231.502,14.082 231.444,13.622 231.098,13.279 C230.754,12.933 230.467,12.244 229.319,11.21 C228.17,10.175 227.306,11.21 226.618,11.901 C225.93,12.588 225.586,12.187 224.953,11.438 C224.322,10.693 223.404,10.807 222.941,11.095 C222.483,11.382 220.704,12.531 219.554,13.508 C218.405,14.484 218.46,13.164 218.116,12.358 C217.77,11.554 216.824,11.268 216.048,12.417 C215.365,13.428 212.027,17.013 211.28,17.644 C210.534,18.276 210.418,17.702 210.475,17.128 C210.534,16.552 210.971,14.792 212.084,12.531 C213.031,10.606 210.331,10.635 209.096,12.358 C208.255,13.604 206.34,15.576 204.559,16.84 C202.779,18.104 203.41,15.231 204.444,12.702 C205.478,10.173 202.491,9.63 200.998,11.726 C200.479,12.454 194.794,15.891 192.84,17.384 C190.887,18.878 191.204,16.865 190.974,13.88 C190.859,12.376 188.361,11.811 187.67,13.219 C187.2,14.18 183.448,16.781 182.041,17.24 C180.863,17.624 181.122,16.923 181.323,16.006 C181.445,15.44 181.718,14.163 182.845,12.473 C183.913,10.869 182.408,9.969 180.011,10.898 C177.49,11.874 164.003,15.532 163.43,15.684 C162.855,15.838 162.51,16.221 162.433,14.497 C162.357,12.773 161.86,9.939 161.973,9.29 C162.089,8.638 161.398,5.766 160.02,6.952 C158.642,8.14 152.553,12.314 151.519,12.581 C150.485,12.852 150.37,12.43 149.949,12.238 C149.55,12.053 147.045,10.949 146.433,13.792 C145.611,13.139 144.767,12.718 143.709,13.589 C140.437,16.289 132.394,15.829 131.302,15.714 C130.211,15.601 129.58,16.06 129.808,13.243 C130.037,10.431 129.12,7.729 128.659,7.27 C128.201,6.811 127.246,6.376 126.764,7.902 C126.073,10.084 120.431,15.76 119.642,16.345 C118.091,17.495 115.887,16.567 117.284,15.082 C121.02,11.118 117.694,9.762 116.595,11.463 C113.265,16.633 107.691,17.666 106.889,17.897 C106.083,18.126 105.51,18.644 105.567,16.692 C105.624,14.738 104.072,11.751 102.982,11.291 C101.89,10.832 101.2,10.947 100.741,11.923 C100.282,12.902 99.304,16.864 99.363,17.267 C99.42,17.667 98.844,18.185 98.902,17.208 C98.961,16.232 99.421,14.853 98.902,13.417 C98.385,11.98 96.606,12.555 95.859,13.417 C95.111,14.279 86.438,17.034 85.576,17.208 C84.715,17.381 84.37,16.922 83.852,15.484 C83.335,14.047 82.187,11.521 81.152,10.832 C80.118,10.143 79.428,10.084 78.51,11.464 C77.592,12.843 68.285,17.439 67.137,17.898 C65.988,18.358 65.125,18.127 64.665,16.346 C64.206,14.566 63.747,12.153 63.402,11.636 C63.056,11.119 61.219,10.257 61.219,12.096 C61.219,13.934 54.956,17.898 54.727,17.955 C54.268,14.451 53.579,11.291 52.718,10.315 C51.855,9.338 51.395,9.912 50.764,10.66 C50.132,11.406 48.293,13.417 47.662,13.818 C48.638,9.625 51.454,4.111 49.213,1.525 C46.976,-1.057 47.9,2.646 47.32,3.94 C45.598,7.789 34.9,15.183 28.651,14.166 C26.18,13.764 27.617,15.603 27.789,16.062 C26.985,15.889 26.295,16.119 26.295,16.578 C26.295,17.037 22.733,21.06 21.815,21.635 C20.895,22.209 20.593,21.809 20.667,20.198 C20.724,18.934 21.7,13.708 22.792,11.812 C23.805,10.052 22.065,8.803 20.724,10.145 C19.741,11.128 11.016,19.278 1.882,20.198 C-0.126,20.4 1.479,22.84 3.088,22.553 C9.695,21.373 18.024,15.603 18.713,15.085 C19.402,14.567 19.402,14.912 19.288,15.544 C19.173,16.177 17.22,23.068 20.609,24.276 C23.998,25.482 26.412,20.255 26.698,20.081 C27.617,21.001 28.708,22.15 30.145,22.322 C31.58,22.495 31.753,20.542 30.489,16.866 C39.566,16.577 44.966,10.029 46.114,8.765 C47.263,7.501 46.804,9.34 46.746,9.684 C46.689,10.029 43.644,17.094 42.897,18.359 C42.457,19.102 42.954,21.977 45.022,19.68 C47.091,17.382 50.422,14.395 50.767,13.935 C51.111,13.475 51.973,12.27 52.26,14.108 C52.549,15.945 53.123,19.795 53.353,20.139 C53.582,20.485 54.157,21.231 55.362,20.426 C56.57,19.621 61.567,16.694 62.258,15.543 C62.773,17.382 64.44,19.909 65.129,20.196 C65.82,20.484 66.794,20.884 68.403,20.025 C70.012,19.162 79.089,14.624 79.719,13.877 C80.352,13.131 80.697,13.244 81.041,13.993 C81.386,14.739 85.042,18.664 78.303,18.205 C75.866,18.038 79.23,21.388 84.66,19.909 C87.265,19.201 96.378,16.29 97.011,15.944 C97.182,18.013 96.153,30.085 96.034,30.995 C95.863,32.317 97.93,33.869 98.275,31.054 C98.619,28.24 101.567,16.507 101.664,15.658 C101.893,13.649 102.552,13.436 102.985,14.166 C104.422,16.577 103.044,18.129 102.985,19.622 C102.928,21.117 103.96,21.001 104.593,20.83 C105.224,20.657 112.807,18.703 113.842,17.899 C114.876,17.094 114.99,17.325 115.335,17.957 C115.682,18.589 117.231,20.197 120.104,18.531 C122.975,16.866 126.308,13.245 127.227,10.949 C127.962,9.109 128.03,11.178 128.03,11.753 C128.03,12.328 126.709,17.556 130.214,17.843 C141.266,18.747 143.214,17.219 144.059,16.463 C144.707,15.882 145.546,16.03 146.274,16.223 C146.3,17.383 146.43,18.457 146.504,19.02 C146.657,20.166 148.151,20.244 149.186,19.402 C150.22,18.558 151.33,17.218 151.407,16.183 C151.484,15.15 152.518,14.805 152.9,14.614 C153.284,14.423 158.492,11.78 159.22,10.9 C159.947,10.018 160.062,10.592 160.139,11.435 C160.216,12.279 160.407,15.188 160.445,15.648 C160.483,16.108 160.637,16.454 159.718,16.797 C158.798,17.141 155.275,18.252 154.816,18.444 C154.355,18.633 153.514,19.019 154.166,20.089 C154.816,21.162 155.161,22.464 156.769,22.886 C158.376,23.307 160.715,24.074 161.21,24.416 C161.71,24.764 163.126,24.647 162.897,22.848 C162.668,21.047 162.59,20.052 162.552,19.67 C162.514,19.286 162.169,18.673 163.509,18.367 C164.621,18.112 174.734,14.937 179.147,13.971 C178.82,15.196 178.54,17.815 178.884,19.078 C179.23,20.342 180.723,20.342 182.101,20.056 C183.48,19.769 187.502,16.609 188.593,15.748 C188.593,16.149 188.707,17.7 188.937,18.734 C189.167,19.768 188.823,20.17 188.364,20.689 C187.904,21.204 182.676,25.225 182.159,25.801 C181.642,26.374 181.758,27.292 182.101,28.328 C182.446,29.361 184.515,31.372 185.663,32.004 C186.813,32.635 188.143,32.276 189.072,30.798 C190.107,29.151 190.949,24.822 191.121,21.605 C192.04,20.689 198.015,16.608 199.737,15.344 C201.462,14.08 200.945,16.149 201.057,17.126 C201.174,18.103 201.345,19.653 202.552,19.768 C203.758,19.882 205.539,19.135 206.632,18.274 C207.722,17.413 207.837,17.413 208.41,19.252 C208.986,21.09 211.054,20.69 212.03,20.342 C213.007,19.998 213.982,18.161 215.19,16.551 C216.395,14.944 216.108,16.437 216.166,17.643 C216.224,18.85 217.765,18.988 218.234,18.275 C218.895,17.272 221.968,14.082 223.576,13.279 C223.921,14.082 223.576,15.576 223.634,16.956 C223.692,18.334 225.932,18.448 225.76,16.956 C225.614,15.695 227.367,14.197 228.689,13.221 C229.035,13.622 229.781,14.543 230.184,15.749 C230.585,16.956 231.85,16.609 232.25,16.323 C232.653,16.036 233.744,15.059 235.468,14.197 C237.192,13.335 238.052,15.174 238.684,15.864 C239.316,16.552 242.304,17.07 243.567,17.012 C244.831,16.955 250.058,16.783 250.978,17.241 C251.898,17.699 252.529,17.299 253.506,16.494 C254.48,15.692 253.329,14.601 252.585,14.543 Z M28.832,19.526 C27.839,18.869 28.047,17.919 28.076,17.747 C28.222,16.876 28.583,17.393 28.64,17.536 C28.698,17.68 29.101,18.876 29.167,19.067 C29.235,19.259 29.541,19.997 28.832,19.526 Z M149.069,16.031 C148.918,16.216 148.61,16.797 148.476,17.026 C148.13,16.298 148.015,15.552 148.744,15.494 C149.472,15.437 149.318,15.724 149.069,16.031 Z M156.94,20.722 C156.825,20.608 156.73,20.414 157.073,20.32 C157.417,20.225 159.907,19.363 160.502,19.21 C160.558,19.842 160.691,21.718 160.691,21.89 C160.041,21.775 157.055,20.837 156.94,20.722 Z M187.385,29.955 C186.579,31.22 184.589,29.324 184.226,28.635 C183.862,27.946 184.322,27.143 184.474,26.873 C184.627,26.605 187.748,23.714 188.916,23.141 C189.491,25.936 188.028,28.945 187.385,29.955 Z" id="Shape"></path>
            <path d="M58.521,6.353 C58.668,7.563 59.901,7.847 60.532,6.927 C61.163,6.009 60.244,5.261 59.901,5.089 C59.556,4.917 58.292,4.457 58.521,6.353 Z" id="Path"></path>
        </g>
    </g>
</svg>