<?xml version="1.0" encoding="UTF-8"?>
<svg width="187px" height="296px" viewBox="0 0 187 296" version="1.1" xmlns="http://www.w3.org/2000/svg" xmlns:xlink="http://www.w3.org/1999/xlink">
    <g id="Components" stroke="none" stroke-width="1" fill="none" fill-rule="evenodd">
        <g id="Footer" transform="translate(-892.000000, -96.000000)">
            <g id="Right-Shape" transform="translate(867.000000, 88.000000)">
                <path d="M104.992615,278.452624 C115.009387,274.399832 125.72461,261.379713 134.22048,255.642164 C149.859355,245.080701 162.40247,237.139642 167.753838,219.758945 C169.618625,213.702306 169.618625,210.257044 166.173857,202.61435 C164.561621,199.037383 162.063611,192.878984 159.057588,188.365412 C157.240981,185.637759 153.144612,179.916224 151.457921,177.518023 C148.43474,173.219553 144.294105,166.372744 142.614976,163.609193 C141.595349,161.931067 138.454255,157.774814 136.720853,154.950446 C135.432694,152.851548 128.916248,142.79335 128.569987,142.300535 C126.448843,139.281619 122.354203,129.999413 115.104593,129.999413 C108.239518,129.999413 76.6728256,137.285563 68.6038472,139.281619 C63.329747,140.586295 56.1460264,143.287704 52.1409828,144.951191 C45.6177131,147.660619 41.9704851,150.277682 35.561566,159.159478 C30.6690214,165.939808 38.5480217,184.171389 41.7263302,192.355627 C43.0294366,195.711164 45.6142148,202.61435 46.7694417,205.777776 C49.1093245,212.185216 55.0780403,224.441117 55.7290697,226.206308 C56.363862,227.927474 57.066123,230.047868 57.835853,232.56749 C59.22038,236.881618 58.0685732,241.707706 59.5619071,245.500621 C63.6687273,255.931523 67.3379926,264.075326 70.0249877,269.932386 C74.5619042,279.82187 74.6748225,282.952543 86.5186699,283.000173 C89.0028695,283.009045 102.275859,279.551825 104.992615,278.452624 Z" id="Oval" fill="#D5A188" transform="translate(101.499681, 206.499793) scale(-1, 1) rotate(-123.000000) translate(-101.499681, -206.499793) "></path>
                <path d="M202.685006,102.993601 C187.456157,113.641299 168.012783,119.74968 144.333345,121.263319 C132.800907,124.966241 121.386778,117.925018 108.870029,109.880892 C96.7270909,102.077004 83.5140304,93.4541799 67.8751888,94.9968671 C57.7105015,95.9995586 47.2391065,101.293911 39.3560914,108.452298 C31.7527706,115.356702 26.5,124.01899 26.5,132.304385 C26.5,157.901569 65.3407002,187.052983 92.1303644,204.20457 C97.223257,207.4652 101.750708,210.894735 106.154289,214.23215 C120.01119,224.734108 132.607231,234.332723 158.469864,234.332723 C180.381264,234.332723 202.358922,222.672951 221.478534,212.592981 C232.158594,206.962392 241.966011,201.80646 250.396694,199.293864 C258.361377,196.92015 266.754435,195.304216 274.815012,193.754755 C287.628892,191.29158 299.605002,189.040496 307.496161,183.97789 C313.070103,180.401904 316.5,175.367141 316.5,167.703935 C316.5,141.507892 296.349621,106.138839 264.48794,84.1696989 C257.056898,79.0458769 249.235356,78.5764044 241.318273,80.6755553 C229.889135,83.7058994 218.268769,91.9774326 207.215601,99.8000057 C205.693883,100.87696 204.183014,101.946225 202.685006,102.993601 Z" id="Oval" stroke="#FFFFFF" stroke-width="3" transform="translate(171.500000, 156.916361) scale(1, -1) rotate(-98.000000) translate(-171.500000, -156.916361) "></path>
            </g>
        </g>
    </g>
</svg>