<?xml version="1.0" encoding="UTF-8"?>
<svg width="350px" height="97px" viewBox="0 0 350 97" version="1.1" xmlns="http://www.w3.org/2000/svg" xmlns:xlink="http://www.w3.org/1999/xlink">
    <g id="Components" stroke="none" stroke-width="1" fill="none" fill-rule="evenodd">
        <g id="Footer" transform="translate(-257.000000, -37.000000)">
            <g id="Top-Shape" transform="translate(257.000000, 37.000000)">
                <path d="M0,0 C0,21.7477142 15.2679324,32.8888006 38.2340495,43.6232828 C52.3178024,50.2061019 68.7412515,58.1370541 87.9492187,63.8472961 C97.6332034,66.7262002 109.818783,73.4881976 119.589844,79.2373807 C125.204178,82.5407919 129.324544,84.2839598 134.318034,86.9188907 C141.171979,90.5355341 160.74776,97 175,97 C191.988619,97 214.523926,71.0996094 217.259766,68.6601563 C219.995605,66.2207031 233.651855,52.4951172 246.536499,39.0063477 C247.133257,38.3816095 251.731532,34.4594825 252.860352,33.5551758 C258.406649,29.1119925 268.290258,24.8680034 294.060872,17.9602539 C325.076497,9.64659241 312.897135,14.4756882 331.996088,8.86914343 C336.815041,7.45452789 341.278955,5.98710229 343.930664,4.24817371 C345.359911,3.31090693 350,1.02688227 350,0" id="Path-Copy-4" fill="#D5A188"></path>
                <path d="M46,1.25786077 C58.9016044,11.344831 70.81787,21.8675902 84.7048133,31.5187715 C100.995325,42.8403907 117.490744,54.187085 136.407135,64.0892283 C152.575704,72.5529722 170.977908,79.571201 189.433517,86.3409964 C269.034208,115.53973 278.471148,23.3472912 296,1" id="Path-4" stroke="#FFFFFF" stroke-width="3"></path>
            </g>
        </g>
    </g>
</svg>