<?xml version="1.0" encoding="utf-8"?>
<!-- Generator: Adobe Illustrator 16.0.0, SVG Export Plug-In . SVG Version: 6.00 Build 0)  -->
<!DOCTYPE svg PUBLIC "-//W3C//DTD SVG 1.1//EN" "http://www.w3.org/Graphics/SVG/1.1/DTD/svg11.dtd">
<svg version="1.1" id="Layer_1" xmlns="http://www.w3.org/2000/svg" xmlns:xlink="http://www.w3.org/1999/xlink" x="0px" y="0px"
	 width="16px" height="16px" viewBox="0 0 16 16" enable-background="new 0 0 16 16" xml:space="preserve">
<title>menu</title>
<title>menu</title>
<g>
	<path d="M12.02,2.942H4.01h-1v1v7.996v1v0.003h1v-0.003h8.01v0.003h1v-0.003v-1V3.942v-1H12.02z M12.02,11.938H4.01V3.942h8.01
		V11.938z"/>
	<path d="M8.012,5.651c-1.264,0-2.292,1.028-2.292,2.291c0,1.26,1.028,2.29,2.292,2.29c1.27,0,2.299-1.028,2.299-2.29
		C10.311,6.678,9.281,5.651,8.012,5.651z M8.012,9.231c-0.714,0-1.292-0.579-1.292-1.29c0-0.713,0.578-1.292,1.292-1.292
		c0.721,0,1.299,0.578,1.299,1.292C9.309,8.652,8.73,9.231,8.012,9.231z"/>
	<circle cx="10.661" cy="5.37" r="0.5"/>
</g>
</svg>
