<?xml version="1.0" encoding="UTF-8"?>
<svg width="24px" height="24px" viewBox="0 0 24 24" version="1.1" xmlns="http://www.w3.org/2000/svg" xmlns:xlink="http://www.w3.org/1999/xlink">
    <title>Path</title>
    <g id="Components" stroke="none" stroke-width="1" fill="none" fill-rule="evenodd">
        <g id="Design-System" transform="translate(-268.000000, -782.000000)" fill="#000000" fill-rule="nonzero">
            <path d="M268,793.999135 C268,799.084746 271.164226,803.422575 275.626686,805.169131 C275.524558,804.222286 275.425893,802.761342 275.66996,801.727948 C275.886332,800.791489 277.077245,795.766462 277.077245,795.766462 C277.077245,795.766462 276.720664,795.046376 276.720664,793.987018 C276.720664,792.320087 277.68828,791.072052 278.889578,791.072052 C279.912586,791.072052 280.409376,791.840606 280.409376,792.759755 C280.409376,793.787955 279.755067,795.328525 279.414064,796.751388 C279.126722,797.947494 280.00952,798.920303 281.188316,798.920303 C283.319149,798.920303 284.958384,796.670032 284.958384,793.42445 C284.958384,790.552759 282.891598,788.544825 279.948936,788.544825 C276.535449,788.544825 274.534439,791.10321 274.534439,793.753336 C274.534439,794.786729 274.929102,795.889362 275.427624,796.490011 C275.524558,796.609448 275.541868,796.711576 275.508979,796.836206 C275.417238,797.21529 275.216444,798.032312 275.17317,798.198485 C275.11951,798.42005 275.000072,798.463325 274.773314,798.361197 C273.274288,797.663613 272.33956,795.472196 272.33956,793.715254 C272.33956,789.927876 275.086621,786.455536 280.263974,786.455536 C284.423512,786.455536 287.658709,789.418969 287.658709,793.384638 C287.658709,797.518211 285.051857,800.850343 281.432384,800.850343 C280.215507,800.850343 279.074793,800.216805 278.683592,799.470754 C278.683592,799.470754 278.082943,801.759106 277.937541,802.321673 C277.667508,803.365453 276.937036,804.668878 276.445438,805.465128 C277.570573,805.811323 278.759755,806 279.999135,806 C286.625316,806 291.996538,800.628777 291.996538,794.002596 C291.996538,787.371223 286.625316,782 279.999135,782 C273.371223,782.001731 268,787.372953 268,793.999135 Z" id="Path"></path>
        </g>
    </g>
</svg>