<?xml version="1.0" encoding="UTF-8"?>
<svg width="17px" height="17px" viewBox="0 0 17 17" version="1.1" xmlns="http://www.w3.org/2000/svg" xmlns:xlink="http://www.w3.org/1999/xlink">
    <title>Group 3</title>
    <defs>
        <polygon id="path-1" points="0 0.00035 16.896 0.00035 16.896 16.8961 0 16.8961"></polygon>
    </defs>
    <g id="Design-System" stroke="none" stroke-width="1" fill="none" fill-rule="evenodd">
        <g transform="translate(-88.000000, -786.000000)" id="Group-3">
            <g transform="translate(88.000000, 786.000000)">
                <mask id="mask-2" fill="white">
                    <use xlink:href="#path-1"></use>
                </mask>
                <g id="Clip-2"></g>
                <path d="M3.4613,10.5321 C1.5083,8.5791 1.5083,5.4141 3.4613,3.4611 C5.4143,1.5091 8.5793,1.5091 10.5323,3.4611 C12.4843,5.4141 12.4843,8.5791 10.5323,10.5321 L10.5323,10.5321 C8.5793,12.4851 5.4143,12.4851 3.4613,10.5321 L3.4613,10.5321 Z M16.8963,15.4821 L12.5973,11.1821 C14.6473,8.4431 14.4353,4.5351 11.9463,2.0471 C9.2173,-0.6819 4.7763,-0.6819 2.0463,2.0471 C-0.6827,4.7761 -0.6827,9.2171 2.0463,11.9461 C4.5353,14.4351 8.4433,14.6461 11.1833,12.5971 L15.4823,16.8961 L16.8963,15.4821 Z" id="Fill-1" fill="#000000" mask="url(#mask-2)"></path>
            </g>
        </g>
    </g>
</svg>