<?xml version="1.0" encoding="UTF-8"?>
<svg width="21px" height="21px" viewBox="0 0 21 21" version="1.1" xmlns="http://www.w3.org/2000/svg" xmlns:xlink="http://www.w3.org/1999/xlink">
    <title>search</title>
    <g id="Page-1" stroke="none" stroke-width="1" fill="none" fill-rule="evenodd">
        <g id="search" fill="#000000" fill-rule="nonzero">
            <path d="M8.0115,2.37125 C5.25,5.13275 5.12575,9.50425 7.5705,12.44775 L0.17675,19.845 L1.155,20.82325 L8.5505,13.42775 C11.49575,15.8725 15.8655,15.75 18.627,12.9885 C21.55475,10.06075 21.5565,5.299 18.627,2.373 C15.701,-0.55475 10.9375,-0.55475 8.0115,2.37125 Z M17.6505,12.01025 C15.26,14.4025 11.382,14.4025 8.988,12.01025 C6.59575,9.61975 6.5975,5.74 8.988,3.3495 C11.382,0.95725 15.25825,0.95725 17.64875,3.3495 C20.041,5.74175 20.04275,9.618 17.6505,12.01025 Z" id="Shape"></path>
        </g>
    </g>
</svg>