<?xml version="1.0" encoding="UTF-8"?>
<svg width="30px" height="24px" viewBox="0 0 30 24" version="1.1" xmlns="http://www.w3.org/2000/svg" xmlns:xlink="http://www.w3.org/1999/xlink">
    <!-- Generator: Sketch 64 (93537) - https://sketch.com -->
    <title>twitter</title>
    <desc>Created with Sketch.</desc>
    <g id="Components" stroke="none" stroke-width="1" fill="none" fill-rule="evenodd">
        <g id="Design-System" transform="translate(-225.000000, -783.000000)" fill="#111111" fill-rule="nonzero">
            <g id="Icons" transform="translate(35.000000, 743.000000)">
                <g id="twitter" transform="translate(189.823529, 40.000000)">
                    <path d="M30,2.73333333 C28.9318182,3.2 27.7781818,3.51111111 26.5736364,3.64977778 C27.8063636,2.92711111 28.75,1.78311111 29.1981818,0.422222222 C28.0445455,1.08888889 26.7663636,1.57777778 25.4081818,1.83911111 C24.3172727,0.705777778 22.7663636,0 21.05,0 C17.7545455,0 15.0836364,2.61155556 15.0836364,5.83377778 C15.0836364,6.28888889 15.1345455,6.73333333 15.2372727,7.16177778 C10.2772727,6.91733333 5.87909091,4.59466667 2.93636364,1.06222222 C2.42454545,1.92355556 2.13,2.92888889 2.13,3.99555556 C2.13,6.01777778 3.18090909,7.80622222 4.78363636,8.85155556 C3.80636364,8.824 2.88636364,8.55733333 2.07909091,8.12355556 C2.07909091,8.14577778 2.07909091,8.17333333 2.07909091,8.19555556 C2.07909091,11.0231111 4.13636364,13.3848889 6.86909091,13.9173333 C6.36909091,14.0506667 5.84090909,14.1226667 5.29545455,14.1226667 C4.90909091,14.1226667 4.54,14.0835556 4.17090909,14.0168889 C4.93272727,16.3333333 7.13727273,18.0222222 9.74454545,18.0728889 C7.69909091,19.6391111 5.13090909,20.5733333 2.33,20.5733333 C1.84727273,20.5733333 1.37545455,20.5457778 0.903636364,20.4897778 C3.55181818,22.1511111 6.68727273,23.112 10.0572727,23.112 C21.0345455,23.112 27.04,14.2177778 27.04,6.50666667 C27.04,6.25155556 27.0345455,6.00088889 27.0227273,5.75111111 C28.1872727,4.93422222 29.1990909,3.90666667 30,2.73422222 L30,2.73333333 Z" id="Path"></path>
                </g>
            </g>
        </g>
    </g>
</svg>